<svg width="219" height="140" viewBox="0 0 219 140" fill="none" xmlns="http://www.w3.org/2000/svg">
<path d="M1.5 81.9121C33.7454 46.257 122.089 -4.81897 217.5 76.1182" stroke="url(#paint0_linear_5497_859)" stroke-width="3" stroke-linecap="round"/>
<g filter="url(#filter0_f_5497_859)">
<rect width="41.8276" height="15.2403" transform="matrix(0.960699 -0.277592 0.271018 0.962574 36.5 42.6152)" fill="#F9BE58" fill-opacity="0.5"/>
</g>
<ellipse cx="8.50708" cy="8.57195" rx="8.50708" ry="8.57195" transform="matrix(0.962285 0.272042 -0.269559 0.962984 73.1562 27.582)" fill="url(#paint1_linear_5497_859)"/>
<g filter="url(#filter1_d_5497_859)">
<rect x="70.5" y="70.582" width="79" height="23" rx="4" fill="white" shape-rendering="crispEdges"/>
<rect x="71" y="71.082" width="78" height="22" rx="3.5" stroke="#EAEAEA" shape-rendering="crispEdges"/>
<path d="M90.2772 84.1798L85.0273 78.9299C84.879 78.7814 84.7032 78.7073 84.5 78.7073C84.2967 78.7073 84.121 78.7814 83.9726 78.9299L78.7226 84.1798C78.5742 84.3283 78.5 84.5041 78.5 84.7071C78.5 84.9102 78.5742 85.0861 78.7226 85.2345C78.8713 85.3829 79.047 85.4571 79.2501 85.4571H89.7499C89.953 85.4571 90.1289 85.3829 90.2772 85.2345C90.4255 85.0862 90.5 84.9103 90.5 84.7071C90.5 84.504 90.4255 84.3283 90.2772 84.1798Z" fill="url(#paint2_linear_5497_859)"/>
<path d="M95.3807 78.3093H96.4318L98.9034 84.3462H98.9886L101.46 78.3093H102.511V85.582H101.688V80.0565H101.616L99.3438 85.582H98.5483L96.2756 80.0565H96.2045V85.582H95.3807V78.3093ZM105.269 85.7099C104.923 85.7099 104.609 85.6448 104.328 85.5146C104.046 85.382 103.822 85.1914 103.656 84.9428C103.491 84.6919 103.408 84.3888 103.408 84.0337C103.408 83.7212 103.469 83.4679 103.593 83.2738C103.716 83.0773 103.88 82.9234 104.086 82.8121C104.292 82.7009 104.519 82.618 104.768 82.5636C105.019 82.5067 105.271 82.4618 105.524 82.4286C105.856 82.386 106.124 82.354 106.33 82.3327C106.539 82.3091 106.69 82.27 106.785 82.2156C106.882 82.1611 106.931 82.0664 106.931 81.9315V81.9031C106.931 81.5527 106.835 81.2804 106.643 81.0863C106.454 80.8922 106.166 80.7951 105.78 80.7951C105.38 80.7951 105.066 80.8827 104.839 81.0579C104.612 81.2331 104.452 81.4201 104.36 81.619L103.564 81.3349C103.706 81.0034 103.896 80.7454 104.132 80.5607C104.371 80.3737 104.632 80.2435 104.914 80.1701C105.198 80.0943 105.477 80.0565 105.752 80.0565C105.927 80.0565 106.128 80.0778 106.355 80.1204C106.585 80.1606 106.806 80.2447 107.019 80.3725C107.235 80.5004 107.414 80.6933 107.556 80.9513C107.698 81.2094 107.769 81.555 107.769 81.9883V85.582H106.931V84.8434H106.888C106.831 84.9618 106.736 85.0884 106.604 85.2234C106.471 85.3583 106.295 85.4731 106.075 85.5678C105.855 85.6625 105.586 85.7099 105.269 85.7099ZM105.396 84.957C105.728 84.957 106.007 84.8919 106.235 84.7617C106.464 84.6315 106.637 84.4634 106.753 84.2575C106.871 84.0515 106.931 83.8349 106.931 83.6076V82.8406C106.895 82.8832 106.817 82.9222 106.696 82.9577C106.578 82.9909 106.441 83.0205 106.284 83.0465C106.13 83.0702 105.98 83.0915 105.833 83.1104C105.689 83.127 105.572 83.1412 105.482 83.1531C105.264 83.1815 105.06 83.2276 104.871 83.2915C104.684 83.3531 104.532 83.4466 104.416 83.5721C104.303 83.6952 104.246 83.8633 104.246 84.0763C104.246 84.3675 104.354 84.5877 104.569 84.7369C104.787 84.8836 105.063 84.957 105.396 84.957ZM108.798 85.582V80.1275H109.608V80.9513H109.665C109.764 80.6815 109.944 80.4625 110.205 80.2944C110.465 80.1263 110.759 80.0423 111.085 80.0423C111.147 80.0423 111.224 80.0434 111.316 80.0458C111.408 80.0482 111.478 80.0517 111.526 80.0565V80.9087C111.497 80.9016 111.432 80.891 111.33 80.8768C111.231 80.8602 111.125 80.8519 111.014 80.8519C110.749 80.8519 110.512 80.9076 110.304 81.0188C110.098 81.1277 109.935 81.2792 109.814 81.4734C109.696 81.6651 109.636 81.8841 109.636 82.1303V85.582H108.798ZM112.8 83.5934L112.786 82.5565H112.956L115.343 80.1275H116.38L113.837 82.6985H113.766L112.8 83.5934ZM112.019 85.582V78.3093H112.857V85.582H112.019ZM115.485 85.582L113.354 82.8832L113.951 82.3008L116.55 85.582H115.485ZM119.021 85.6957C118.495 85.6957 118.042 85.5797 117.661 85.3477C117.282 85.1133 116.99 84.7866 116.784 84.3675C116.58 83.9461 116.478 83.4561 116.478 82.8974C116.478 82.3387 116.58 81.8462 116.784 81.4201C116.99 80.9916 117.276 80.6578 117.643 80.4187C118.012 80.1772 118.443 80.0565 118.936 80.0565C119.22 80.0565 119.5 80.1038 119.777 80.1985C120.054 80.2932 120.306 80.4471 120.534 80.6602C120.761 80.8709 120.942 81.1502 121.077 81.4982C121.212 81.8462 121.279 82.2747 121.279 82.7837V83.1388H117.075V82.4144H120.427C120.427 82.1067 120.365 81.832 120.242 81.5906C120.122 81.3491 119.949 81.1585 119.724 81.0188C119.501 80.8791 119.239 80.8093 118.936 80.8093C118.602 80.8093 118.313 80.8922 118.069 81.0579C117.828 81.2212 117.642 81.4343 117.512 81.6971C117.381 81.9599 117.316 82.2416 117.316 82.5423V83.0252C117.316 83.4371 117.387 83.7863 117.529 84.0728C117.674 84.3569 117.874 84.5735 118.129 84.7227C118.385 84.8694 118.682 84.9428 119.021 84.9428C119.241 84.9428 119.44 84.9121 119.617 84.8505C119.797 84.7866 119.952 84.6919 120.083 84.5664C120.213 84.4386 120.313 84.2799 120.384 84.0906L121.194 84.3178C121.109 84.5924 120.966 84.8339 120.764 85.0423C120.563 85.2482 120.315 85.4092 120.019 85.5252C119.723 85.6388 119.39 85.6957 119.021 85.6957ZM124.426 80.1275V80.8377H121.6V80.1275H124.426ZM122.423 78.8207H123.262V84.0195C123.262 84.2563 123.296 84.4338 123.365 84.5522C123.436 84.6682 123.526 84.7463 123.634 84.7866C123.746 84.8245 123.863 84.8434 123.986 84.8434C124.078 84.8434 124.154 84.8387 124.213 84.8292C124.272 84.8174 124.32 84.8079 124.355 84.8008L124.526 85.5536C124.469 85.5749 124.39 85.5962 124.288 85.6175C124.186 85.6412 124.057 85.6531 123.901 85.6531C123.664 85.6531 123.432 85.6022 123.205 85.5004C122.98 85.3986 122.793 85.2435 122.644 85.0352C122.497 84.8268 122.423 84.564 122.423 84.2468V78.8207Z" fill="#525252"/>
<path d="M141.277 79.9842L136.027 85.2342C135.879 85.3826 135.703 85.4568 135.5 85.4568C135.297 85.4568 135.121 85.3826 134.973 85.2342L129.723 79.9842C129.574 79.8358 129.5 79.66 129.5 79.4569C129.5 79.2538 129.574 79.0779 129.723 78.9296C129.871 78.7812 130.047 78.7069 130.25 78.7069H140.75C140.953 78.7069 141.129 78.7812 141.277 78.9296C141.426 79.0779 141.5 79.2538 141.5 79.4569C141.5 79.6601 141.426 79.8358 141.277 79.9842Z" fill="url(#paint3_linear_5497_859)"/>
</g>
<defs>
<filter id="filter0_f_5497_859" x="11.5" y="6.00415" width="94.314" height="76.281" filterUnits="userSpaceOnUse" color-interpolation-filters="sRGB">
<feFlood flood-opacity="0" result="BackgroundImageFix"/>
<feBlend mode="normal" in="SourceGraphic" in2="BackgroundImageFix" result="shape"/>
<feGaussianBlur stdDeviation="12.5" result="effect1_foregroundBlur_5497_859"/>
</filter>
<filter id="filter1_d_5497_859" x="30.5" y="36.982" width="159" height="103" filterUnits="userSpaceOnUse" color-interpolation-filters="sRGB">
<feFlood flood-opacity="0" result="BackgroundImageFix"/>
<feColorMatrix in="SourceAlpha" type="matrix" values="0 0 0 0 0 0 0 0 0 0 0 0 0 0 0 0 0 0 127 0" result="hardAlpha"/>
<feMorphology radius="6.4" operator="dilate" in="SourceAlpha" result="effect1_dropShadow_5497_859"/>
<feOffset dy="6.4"/>
<feGaussianBlur stdDeviation="16.8"/>
<feComposite in2="hardAlpha" operator="out"/>
<feColorMatrix type="matrix" values="0 0 0 0 0 0 0 0 0 0 0 0 0 0 0 0 0 0 0.07 0"/>
<feBlend mode="normal" in2="BackgroundImageFix" result="effect1_dropShadow_5497_859"/>
<feBlend mode="normal" in="SourceGraphic" in2="effect1_dropShadow_5497_859" result="shape"/>
</filter>
<linearGradient id="paint0_linear_5497_859" x1="1.5" y1="57.4121" x2="217.5" y2="57.4121" gradientUnits="userSpaceOnUse">
<stop stop-color="#FAFAF0"/>
<stop offset="1" stop-color="#1A3524"/>
</linearGradient>
<linearGradient id="paint1_linear_5497_859" x1="17.0142" y1="2.04447" x2="-0.0946972" y2="14.9741" gradientUnits="userSpaceOnUse">
<stop stop-color="#FFC65F"/>
<stop offset="0.894231" stop-color="#8A6426"/>
<stop offset="1" stop-color="#FFC65F"/>
</linearGradient>
<linearGradient id="paint2_linear_5497_859" x1="84.5" y1="78.7073" x2="84.5" y2="85.4571" gradientUnits="userSpaceOnUse">
<stop stop-color="#00FF90"/>
<stop offset="1" stop-color="#009957"/>
</linearGradient>
<linearGradient id="paint3_linear_5497_859" x1="135.5" y1="85.4568" x2="135.5" y2="78.7069" gradientUnits="userSpaceOnUse">
<stop stop-color="#FF0000"/>
<stop offset="1" stop-color="#FFAF34"/>
</linearGradient>
</defs>
</svg>
